<svg width="331" height="365" viewBox="0 0 331 365" fill="none" xmlns="http://www.w3.org/2000/svg">
<path fill-rule="evenodd" clip-rule="evenodd" d="M166.031 351.997C173.949 352.108 177.693 349.038 180.268 346.198C183.699 342.608 186.182 339.367 188.943 335.474C195.182 326.53 200.353 319.351 206.286 310.89L284.163 200.435C281.276 204.506 287.283 196.082 284.163 200.435C292.219 189.074 305.203 175.687 306 158.312C283.195 158.311 258.695 158.052 235.372 158.067C212.227 158.074 188.877 157.822 165.858 158.378L166.031 351.997Z" fill="#FABF22"/>
<path fill-rule="evenodd" clip-rule="evenodd" d="M165.977 351.997L165.858 158.379C157.176 156.97 140.251 158.038 130.666 158.045C118.945 158.06 107.217 158.023 95.4883 158.023C84.1649 158.015 34.1219 157.422 26.0346 157.422C25.4373 172.306 32.6853 178.773 38.6191 186.953C44.699 195.34 50.354 203.431 55.9892 211.567C67.9298 228.809 78.7156 244.338 90.2713 260.275C103.042 277.881 113.044 292.862 124.978 309.496C128.197 313.99 130.859 317.705 133.886 321.985C142.567 334.273 150.147 351.36 165.977 351.997Z" fill="#22AE87"/>
<path fill-rule="evenodd" clip-rule="evenodd" d="M165.858 158.379C213.256 158.191 165.858 158.379 306 158.312C305.754 141.285 289.107 130.42 275.196 115.44C263.514 102.847 250.969 90.5586 238.922 78.3073L185.478 22.9093C179.949 17.2286 175.805 12.0001 165.911 12.0002C164.71 12.0596 166.568 12.0225 165.911 12.0002L165.858 158.379Z" fill="#F66169"/>
<path fill-rule="evenodd" clip-rule="evenodd" d="M26.0347 157.422C33.2194 157.422 84.1649 158.015 95.4883 158.022C107.217 158.022 118.945 158.059 130.666 158.045C140.251 158.037 157.305 158.378 165.858 158.378L165.911 12C154.415 12.5785 149.576 20.3876 141.797 28.2486L56.0357 116.796C50.3872 122.648 44.5132 128.373 38.9908 134.269C33.1566 140.506 26.944 144.874 26.0347 157.422Z" fill="#774CF4"/>
</svg>
